<mxfile host="Electron" modified="2024-02-04T07:10:32.681Z" agent="Mozilla/5.0 (Windows NT 10.0; Win64; x64) AppleWebKit/537.36 (KHTML, like Gecko) draw.io/23.0.2 Chrome/120.0.6099.109 Electron/28.1.0 Safari/537.36" etag="CHqDyO2SavwonW61d-RR" version="23.0.2" type="device">
  <diagram name="第 1 页" id="xIDEnGWVFCPH8E6yQQmO">
    <mxGraphModel dx="1086" dy="746" grid="1" gridSize="10" guides="1" tooltips="1" connect="1" arrows="1" fold="1" page="1" pageScale="1" pageWidth="1150" pageHeight="500" math="0" shadow="0">
      <root>
        <mxCell id="0" />
        <mxCell id="1" parent="0" />
        <mxCell id="-c5uIZdyddJv8z_m6yjy-1" value="" style="rounded=1;whiteSpace=wrap;html=1;fillColor=#dae8fc;strokeColor=#6c8ebf;gradientColor=none;dashed=1;dashPattern=12 12;" vertex="1" parent="1">
          <mxGeometry x="45" y="90" width="310" height="260" as="geometry" />
        </mxCell>
        <mxCell id="-c5uIZdyddJv8z_m6yjy-2" value="&lt;font style=&quot;font-size: 18px;&quot;&gt;Model I: Great Lakes Network&lt;/font&gt;" style="text;html=1;align=center;verticalAlign=middle;resizable=0;points=[];autosize=1;strokeColor=none;fillColor=none;fontFamily=Times New Roman;fontSize=18;" vertex="1" parent="1">
          <mxGeometry x="75" y="40" width="250" height="40" as="geometry" />
        </mxCell>
        <mxCell id="-c5uIZdyddJv8z_m6yjy-3" value="&lt;font style=&quot;font-size: 18px;&quot; face=&quot;Times New Roman&quot;&gt;Maps and data observation&lt;/font&gt;" style="rounded=1;whiteSpace=wrap;html=1;" vertex="1" parent="1">
          <mxGeometry x="85" y="110" width="220" height="60" as="geometry" />
        </mxCell>
        <mxCell id="-c5uIZdyddJv8z_m6yjy-5" value="&lt;font style=&quot;font-size: 18px;&quot; face=&quot;Times New Roman&quot;&gt;Draw topology diagram&lt;/font&gt;" style="rounded=1;whiteSpace=wrap;html=1;" vertex="1" parent="1">
          <mxGeometry x="85" y="190" width="220" height="60" as="geometry" />
        </mxCell>
        <mxCell id="-c5uIZdyddJv8z_m6yjy-6" value="&lt;font face=&quot;Times New Roman&quot;&gt;&lt;span style=&quot;font-size: 18px;&quot;&gt;Building network based on topology and natural conditions&lt;/span&gt;&lt;/font&gt;" style="rounded=1;whiteSpace=wrap;html=1;" vertex="1" parent="1">
          <mxGeometry x="85" y="270" width="220" height="60" as="geometry" />
        </mxCell>
        <mxCell id="-c5uIZdyddJv8z_m6yjy-7" value="" style="rounded=1;whiteSpace=wrap;html=1;fillColor=#fff2cc;strokeColor=#d6b656;dashed=1;dashPattern=12 12;" vertex="1" parent="1">
          <mxGeometry x="395" y="90" width="330" height="260" as="geometry" />
        </mxCell>
        <mxCell id="-c5uIZdyddJv8z_m6yjy-8" value="&lt;font style=&quot;font-size: 18px;&quot;&gt;Model II: Stakeholders Interest Optimization&lt;/font&gt;" style="text;html=1;align=center;verticalAlign=middle;resizable=0;points=[];autosize=1;strokeColor=none;fillColor=none;fontFamily=Times New Roman;fontSize=18;" vertex="1" parent="1">
          <mxGeometry x="385" y="40" width="350" height="40" as="geometry" />
        </mxCell>
        <mxCell id="-c5uIZdyddJv8z_m6yjy-9" value="Water Level Control Algorithms" style="text;html=1;align=center;verticalAlign=middle;resizable=0;points=[];autosize=1;strokeColor=none;fillColor=none;fontFamily=Times New Roman;fontSize=18;" vertex="1" parent="1">
          <mxGeometry x="820" y="40" width="260" height="40" as="geometry" />
        </mxCell>
        <mxCell id="-c5uIZdyddJv8z_m6yjy-10" value="" style="rounded=1;whiteSpace=wrap;html=1;fillColor=#d5e8d4;strokeColor=#82b366;dashed=1;dashPattern=12 12;" vertex="1" parent="1">
          <mxGeometry x="795" y="90" width="310" height="260" as="geometry" />
        </mxCell>
        <mxCell id="-c5uIZdyddJv8z_m6yjy-11" value="&lt;font style=&quot;font-size: 18px;&quot; face=&quot;Times New Roman&quot;&gt;Multi-objective optimization&lt;/font&gt;" style="rounded=1;whiteSpace=wrap;html=1;" vertex="1" parent="1">
          <mxGeometry x="450" y="190" width="220" height="60" as="geometry" />
        </mxCell>
        <mxCell id="-c5uIZdyddJv8z_m6yjy-12" value="&lt;font style=&quot;font-size: 18px;&quot; face=&quot;Times New Roman&quot;&gt;Establish quantitative criteria for stakeholders&#39;s interest&lt;/font&gt;" style="rounded=1;whiteSpace=wrap;html=1;" vertex="1" parent="1">
          <mxGeometry x="450" y="110" width="220" height="60" as="geometry" />
        </mxCell>
        <mxCell id="-c5uIZdyddJv8z_m6yjy-13" value="" style="endArrow=classic;html=1;rounded=1;entryX=0;entryY=0.75;entryDx=0;entryDy=0;curved=0;exitX=0.5;exitY=1;exitDx=0;exitDy=0;" edge="1" parent="1" source="-c5uIZdyddJv8z_m6yjy-1" target="-c5uIZdyddJv8z_m6yjy-10">
          <mxGeometry width="50" height="50" relative="1" as="geometry">
            <mxPoint x="145" y="400" as="sourcePoint" />
            <mxPoint x="755" y="260" as="targetPoint" />
            <Array as="points">
              <mxPoint x="200" y="420" />
              <mxPoint x="755" y="420" />
              <mxPoint x="755" y="285" />
            </Array>
          </mxGeometry>
        </mxCell>
        <mxCell id="-c5uIZdyddJv8z_m6yjy-14" value="" style="endArrow=classic;html=1;rounded=0;exitX=1;exitY=0.5;exitDx=0;exitDy=0;" edge="1" parent="1" source="-c5uIZdyddJv8z_m6yjy-7" target="-c5uIZdyddJv8z_m6yjy-10">
          <mxGeometry width="50" height="50" relative="1" as="geometry">
            <mxPoint x="715" y="520" as="sourcePoint" />
            <mxPoint x="765" y="470" as="targetPoint" />
          </mxGeometry>
        </mxCell>
        <mxCell id="-c5uIZdyddJv8z_m6yjy-15" value="" style="endArrow=classic;html=1;rounded=0;exitX=0.5;exitY=1;exitDx=0;exitDy=0;entryX=0.5;entryY=0;entryDx=0;entryDy=0;" edge="1" parent="1" source="-c5uIZdyddJv8z_m6yjy-3" target="-c5uIZdyddJv8z_m6yjy-5">
          <mxGeometry width="50" height="50" relative="1" as="geometry">
            <mxPoint x="110" y="580.0031914893616" as="sourcePoint" />
            <mxPoint x="425" y="727.45" as="targetPoint" />
          </mxGeometry>
        </mxCell>
        <mxCell id="-c5uIZdyddJv8z_m6yjy-18" value="" style="endArrow=classic;html=1;rounded=0;exitX=0.5;exitY=1;exitDx=0;exitDy=0;entryX=0.5;entryY=0;entryDx=0;entryDy=0;" edge="1" parent="1" source="-c5uIZdyddJv8z_m6yjy-5" target="-c5uIZdyddJv8z_m6yjy-6">
          <mxGeometry width="50" height="50" relative="1" as="geometry">
            <mxPoint x="80" y="390" as="sourcePoint" />
            <mxPoint x="80" y="430" as="targetPoint" />
          </mxGeometry>
        </mxCell>
        <mxCell id="-c5uIZdyddJv8z_m6yjy-19" value="" style="endArrow=classic;html=1;rounded=0;exitX=0.5;exitY=1;exitDx=0;exitDy=0;entryX=0.5;entryY=0;entryDx=0;entryDy=0;" edge="1" parent="1" source="-c5uIZdyddJv8z_m6yjy-12" target="-c5uIZdyddJv8z_m6yjy-11">
          <mxGeometry width="50" height="50" relative="1" as="geometry">
            <mxPoint x="550" y="360" as="sourcePoint" />
            <mxPoint x="550" y="400" as="targetPoint" />
          </mxGeometry>
        </mxCell>
        <mxCell id="-c5uIZdyddJv8z_m6yjy-20" value="&lt;font face=&quot;Times New Roman&quot;&gt;&lt;span style=&quot;font-size: 18px;&quot;&gt;Establish algorithms&lt;/span&gt;&lt;/font&gt;" style="rounded=1;whiteSpace=wrap;html=1;" vertex="1" parent="1">
          <mxGeometry x="840" y="110" width="220" height="60" as="geometry" />
        </mxCell>
        <mxCell id="-c5uIZdyddJv8z_m6yjy-21" value="&lt;font face=&quot;Times New Roman&quot;&gt;&lt;span style=&quot;font-size: 18px;&quot;&gt;Sensitivity analysis&lt;/span&gt;&lt;/font&gt;" style="rounded=1;whiteSpace=wrap;html=1;" vertex="1" parent="1">
          <mxGeometry x="840" y="190" width="220" height="60" as="geometry" />
        </mxCell>
      </root>
    </mxGraphModel>
  </diagram>
</mxfile>
